<?xml version="1.0" encoding="UTF-8"?><svg id="_이어_2" xmlns="http://www.w3.org/2000/svg" viewBox="0 0 749.57 170.23"><g id="_이어_1-2"><g><path d="M0,114.73L20.24,0h45.42l7.65,71.55L106.13,0h45.42l-20.24,114.73h-33.78l6.21-35.06,3.67-17.85,5.58-20.72h-.32l-33.94,73.62h-26.13l-7.81-73.62h-.32l-1.43,16.89-2.39,17.85-6.85,38.88H0Z"/><path d="M245.17,80.47c-.21,1.06-.32,2.13-.32,3.19,0,3.93,1.3,7.12,3.9,9.56,2.6,2.45,5.92,3.67,9.96,3.67,2.65,0,5.2-.61,7.65-1.83,2.44-1.22,4.46-3.05,6.06-5.5h31.71c-2.23,4.99-5.21,9.27-8.92,12.83-3.72,3.56-7.89,6.43-12.51,8.6-4.62,2.18-9.43,3.75-14.42,4.7-4.99,.96-10.09,1.43-15.3,1.43-12.22,0-22.05-3-29.48-9-7.44-6-11.15-14.47-11.15-25.42,0-2.87,.26-5.84,.8-8.92,1.27-6.69,3.59-12.83,6.93-18.41,3.35-5.58,7.51-10.33,12.51-14.26,4.99-3.93,10.54-6.96,16.65-9.08,6.11-2.12,12.51-3.19,19.2-3.19,13.07,0,23.21,3.53,30.44,10.6,7.22,7.07,10.84,16.6,10.84,28.6,0,3.93-.43,8.07-1.27,12.43h-63.26Zm33.15-16.89v-1.12c.1-.53,.16-.9,.16-1.12,0-3.4-1.17-6.29-3.51-8.69-2.34-2.39-5.26-3.59-8.76-3.59-4.89,0-8.92,1.3-12.11,3.9-3.19,2.6-5.15,6.14-5.9,10.6h30.12Z"/><path d="M465.84,93.82c9.98-7.91,22.15-11.87,36.49-11.87,12.85,0,22.87,3.11,30.04,9.32s10.76,14.64,10.76,25.26c0,2.76-.27,5.68-.8,8.76-1.28,7.54-3.61,14.13-7.01,19.76-3.4,5.63-7.57,10.31-12.51,14.02-4.94,3.72-10.46,6.51-16.57,8.37-6.11,1.86-12.56,2.79-19.36,2.79-12.22,0-22.04-2.95-29.48-8.84-7.44-5.9-11.16-14.31-11.16-25.26,0-2.87,.26-5.9,.8-9.08,2.55-14.23,8.82-25.31,18.8-33.22Zm20.72,16.73c-3.08,4.2-5.1,9.11-6.06,14.74-.53,3.08-.8,5.84-.8,8.29,0,4.78,.98,8.37,2.95,10.76,1.96,2.39,4.7,3.59,8.21,3.59,4.57,0,8.42-1.86,11.55-5.58,3.13-3.72,5.39-9.4,6.77-17.05,.42-2.34,.64-4.51,.64-6.53,0-4.46-.93-7.99-2.79-10.6-1.86-2.6-4.6-3.9-8.21-3.9-5.1,0-9.19,2.1-12.27,6.29Z"/><path d="M650.32,166.84h-33.15l-7.49-42.55c-1.06-5.74-2.79-10.04-5.18-12.91-2.39-2.87-5.98-4.3-10.76-4.3-3.4,0-5.82,.88-7.25,2.63-1.43,1.75-2.15,4.22-2.15,7.41,0,1.7,.16,3.56,.48,5.58l7.81,44.14h-33.15l-8.76-50.04c-.74-3.82-1.12-7.33-1.12-10.52,0-8.29,2.23-14.58,6.69-18.88,4.46-4.3,11.26-6.45,20.4-6.45,6.06,0,11.53,1.27,16.41,3.82,4.89,2.55,9.72,6.43,14.5,11.63l-2.23-13.07h30.28l14.66,83.5Z"/><polygon points="635.18 75.37 603.88 75.37 599.97 51.79 631.27 51.79 635.18 75.37"/><path d="M715.79,115.21c0-.1,.05-.48,.16-1.12v-.96c0-2.65-.69-4.83-2.07-6.53-1.7-2.23-4.41-3.35-8.13-3.35-2.87,0-5.42,.69-7.65,2.07-2.23,1.38-4.04,3.16-5.42,5.34-1.38,2.18-2.5,4.6-3.35,7.25-.85,2.66-1.54,5.37-2.07,8.13-.43,2.55-.64,4.84-.64,6.85,0,4.46,.96,7.91,2.87,10.36,1.91,2.44,4.78,3.67,8.6,3.67,4.04,0,7.28-1.14,9.72-3.43,2.44-2.28,4.25-5.28,5.42-9h33.46c-1.81,6.16-4.44,11.47-7.89,15.94-3.45,4.46-7.62,8.13-12.51,11-4.46,2.66-9.43,4.62-14.9,5.9-5.47,1.28-11.23,1.91-17.29,1.91-12.22,0-22.07-3-29.56-9-7.49-6-11.23-14.47-11.23-25.42,0-2.87,.26-5.84,.8-8.92,1.27-7.01,3.56-13.31,6.85-18.88,3.29-5.58,7.43-10.3,12.43-14.18,4.99-3.88,10.57-6.82,16.73-8.84,6.16-2.02,12.69-3.03,19.6-3.03,5.52,0,10.68,.59,15.46,1.75,4.78,1.17,9,3,12.67,5.5,3.67,2.5,6.53,5.71,8.61,9.64,2.07,3.93,3.11,8.6,3.11,14.02v1.59c-.11,.96-.16,1.54-.16,1.75h-33.62Z"/><path d="M397.17,32.91c-3.98-2.71-9.54-4.06-16.65-4.06-2.87,0-5.74,.45-8.61,1.35-2.87,.9-5.6,2.1-8.21,3.59-2.6,1.49-4.94,3.08-7.01,4.78-2.07,1.7-3.8,3.4-5.18,5.1l2.07-12.43h-30.44l-14.66,83.5h33.15l7.33-41.27c.96-5.74,2.55-10.25,4.78-13.54,2.23-3.29,5.58-4.94,10.04-4.94,3.29,0,5.63,.72,7.01,2.15,1.38,1.43,2.07,3.74,2.07,6.93,0,2.02-.32,4.73-.96,8.13l-7.49,42.55,40.63-70.59c-1.27-4.78-3.9-8.53-7.89-11.23Z"/><path d="M384.51,125.57c.96-5.74,2.55-10.25,4.78-13.54,2.23-3.29,5.58-4.94,10.04-4.94,3.29,0,5.63,.72,7.01,2.15,1.38,1.43,2.07,3.74,2.07,6.93,0,2.02-.32,4.73-.96,8.13l-7.49,42.55h33.15l8.76-49.4c.74-4.67,1.12-8.76,1.12-12.27,0-7.97-2.1-14-6.29-18.09-4.2-4.09-11.02-6.14-20.48-6.14-11.9,0-22.42,5.1-31.55,15.3l-40.63,70.59h33.15l7.33-41.27Z"/><path d="M147.22,66.81c3.33-4.02,4.14-5.03,7.18-7.53s5.98-4.3,10.76-4.3c3.4,0,5.82,.88,7.25,2.63,1.43,1.75,2.15,4.22,2.15,7.41,0,1.7-.16,3.56-.48,5.58l-7.81,44.14h33.15l8.76-50.04c.74-3.82,1.12-7.33,1.12-10.52,0-8.29-2.23-14.58-6.69-18.88-4.46-4.3-11.26-6.45-20.4-6.45-6.06,0-11.53,1.27-16.41,3.82-4.89,2.55-9.72,6.43-14.5,11.63"/></g></g></svg>